<svg width="670" height="155" viewBox="0 0 670 155" fill="none" xmlns="http://www.w3.org/2000/svg">
<path d="M245.44 45.4827H165.44V122.283H152.64V32.6827H245.44V45.4827ZM234.432 83.8827H171.84V71.0827H234.432V83.8827ZM351.062 122.283H258.39V32.6827H351.062V45.4827H271.19V109.483H351.062V122.283ZM340.182 83.8827H277.59V71.0827H340.182V83.8827ZM452.522 122.283H366.89V32.6827H379.69V109.483H452.522V122.283ZM557.187 122.283H464.515V32.6827H557.187V45.4827H477.315V109.483H557.187V122.283ZM546.307 83.8827H483.715V71.0827H546.307V83.8827ZM665.089 122.283H607.361C601.132 122.283 595.5 121.131 590.465 118.827C585.431 116.523 581.079 113.323 577.409 109.227C573.825 105.131 571.052 100.395 569.089 95.0187C567.127 89.5574 566.145 83.712 566.145 77.4827C566.145 71.3387 567.127 65.5787 569.089 60.2027C571.052 54.7414 573.825 49.9627 577.409 45.8667C581.079 41.6854 585.431 38.4427 590.465 36.1387C595.5 33.8347 601.132 32.6827 607.361 32.6827H665.089V45.4827H607.361C601.473 45.4827 596.396 46.9334 592.129 49.8347C587.948 52.6507 584.705 56.4907 582.401 61.3547C580.097 66.2187 578.945 71.5947 578.945 77.4827C578.945 83.3707 580.097 88.7467 582.401 93.6107C584.705 98.3894 587.948 102.229 592.129 105.131C596.396 108.032 601.473 109.483 607.361 109.483H665.089V122.283Z" fill="white"/>
<rect x="38.6272" y="19.8745" width="89.6015" height="12.806" transform="rotate(90 38.6272 19.8745)" fill="white"/>
<rect x="13.0154" y="45.4872" width="89.6015" height="12.806" transform="rotate(90 13.0154 45.4872)" fill="white"/>
<rect x="0.209473" y="122.283" width="105.62" height="12.806" fill="white"/>
<rect x="51.4331" y="19.8752" width="67.1936" height="12.806" fill="white"/>
<rect x="51.4331" y="58.273" width="54.3889" height="12.806" fill="#DDFE55"/>
</svg>
