<svg width="265" height="224" viewBox="0 0 265 224" fill="none" xmlns="http://www.w3.org/2000/svg">
<path d="M52.1644 169.301H12.1644V207.701H5.76443V162.901H52.1644V169.301ZM46.6604 188.501H15.3644V182.101H46.6604V188.501ZM104.975 207.701H58.6394V162.901H104.975V169.301H65.0394V201.301H104.975V207.701ZM99.5354 188.501H68.2394V182.101H99.5354V188.501ZM155.705 207.701H112.889V162.901H119.289V201.301H155.705V207.701ZM208.038 207.701H161.702V162.901H208.038V169.301H168.102V201.301H208.038V207.701ZM202.598 188.501H171.302V182.101H202.598V188.501ZM261.989 207.701H233.125C230.01 207.701 227.194 207.125 224.677 205.973C222.16 204.821 219.984 203.221 218.149 201.173C216.357 199.125 214.97 196.757 213.989 194.069C213.008 191.338 212.517 188.416 212.517 185.301C212.517 182.229 213.008 179.349 213.989 176.661C214.97 173.93 216.357 171.541 218.149 169.493C219.984 167.402 222.16 165.781 224.677 164.629C227.194 163.477 230.01 162.901 233.125 162.901H261.989V169.301H233.125C230.181 169.301 227.642 170.026 225.509 171.477C223.418 172.885 221.797 174.805 220.645 177.237C219.493 179.669 218.917 182.357 218.917 185.301C218.917 188.245 219.493 190.933 220.645 193.365C221.797 195.754 223.418 197.674 225.509 199.125C227.642 200.576 230.181 201.301 233.125 201.301H261.989V207.701Z" fill="white"/>
<rect x="111.597" y="0.945465" width="89.6015" height="12.806" transform="rotate(90 111.597 0.945465)" fill="white"/>
<rect x="85.9854" y="26.5582" width="89.6015" height="12.806" transform="rotate(90 85.9854 26.5582)" fill="white"/>
<rect x="73.1794" y="103.354" width="105.62" height="12.806" fill="white"/>
<rect x="124.403" y="0.946213" width="67.1936" height="12.806" fill="white"/>
<rect x="124.403" y="39.344" width="54.3889" height="12.806" fill="#DDFE55"/>
</svg>
