<svg width="121" height="168" viewBox="0 0 121 168" fill="none" xmlns="http://www.w3.org/2000/svg">
<path d="M21.6092 145.56H5.3592V161.16H2.7592V142.96H21.6092V145.56ZM19.3732 153.36H6.6592V150.76H19.3732V153.36ZM43.0637 161.16H24.2397V142.96H43.0637V145.56H26.8397V158.56H43.0637V161.16ZM40.8537 153.36H28.1397V150.76H40.8537V153.36ZM63.6727 161.16H46.2787V142.96H48.8787V158.56H63.6727V161.16ZM84.9328 161.16H66.1088V142.96H84.9328V145.56H68.7088V158.56H84.9328V161.16ZM82.7228 153.36H70.0088V150.76H82.7228V153.36ZM106.85 161.16H95.1244C93.8591 161.16 92.7151 160.926 91.6924 160.458C90.6697 159.99 89.7857 159.34 89.0404 158.508C88.3124 157.676 87.7491 156.714 87.3504 155.622C86.9517 154.512 86.7524 153.325 86.7524 152.06C86.7524 150.812 86.9517 149.642 87.3504 148.55C87.7491 147.44 88.3124 146.47 89.0404 145.638C89.7857 144.788 90.6697 144.13 91.6924 143.662C92.7151 143.194 93.8591 142.96 95.1244 142.96H106.85V145.56H95.1244C93.9284 145.56 92.8971 145.854 92.0304 146.444C91.1811 147.016 90.5224 147.796 90.0544 148.784C89.5864 149.772 89.3524 150.864 89.3524 152.06C89.3524 153.256 89.5864 154.348 90.0544 155.336C90.5224 156.306 91.1811 157.086 92.0304 157.676C92.8971 158.265 93.9284 158.56 95.1244 158.56H106.85V161.16Z" fill="white"/>
<rect x="40.5973" y="0.945465" width="89.6015" height="12.806" transform="rotate(90 40.5973 0.945465)" fill="white"/>
<rect x="14.9855" y="26.5582" width="89.6015" height="12.806" transform="rotate(90 14.9855 26.5582)" fill="white"/>
<rect x="2.17957" y="103.354" width="105.62" height="12.806" fill="white"/>
<rect x="53.4032" y="0.946213" width="67.1936" height="12.806" fill="white"/>
<rect x="53.4032" y="39.344" width="54.3889" height="12.806" fill="#DDFE55"/>
</svg>
