<svg width="167" height="122" viewBox="0 0 167 122" fill="none" xmlns="http://www.w3.org/2000/svg">
<path d="M14.5487 53.3511C28.3169 56.9564 48.3623 63.0979 58.1824 65.695C64.4581 67.3548 64.5913 76.5793 58.0696 78.4913C48.0211 81.4373 28.6581 86.9818 14.5646 90.7561C10.4728 85.415 10.499 59.567 14.5487 53.3511Z" fill="white"/>
<path d="M48.1296 10.158C55.3158 22.4429 65.1473 40.9598 70.2548 49.7402C73.5188 55.3514 67.0902 61.9683 61.1267 58.7087C51.9382 53.6865 34.326 43.9153 21.6915 36.6186C22.5748 29.9485 40.8707 11.6898 48.1296 10.158Z" fill="white"/>
<path d="M145.574 36.6074C133.289 43.7937 114.772 53.6252 105.992 58.7326C100.381 61.9966 93.7637 55.5681 97.0232 49.6046C102.045 40.416 111.817 22.8038 119.113 10.1694C125.783 11.0527 144.042 29.3486 145.574 36.6074Z" fill="white"/>
<path d="M152.677 90.7561C138.909 87.1508 118.864 81.0093 109.043 78.4121C102.768 76.7524 102.635 67.5279 109.156 65.6159C119.205 62.6699 138.568 57.1254 152.661 53.3511C156.753 58.6921 156.727 84.5402 152.677 90.7561Z" fill="white"/>
<path d="M102.381 3.18668C98.7759 16.9549 92.6344 37.0003 90.0373 46.8204C88.3776 53.0961 79.153 53.2293 77.241 46.7076C74.295 36.6591 68.7506 17.2961 64.9762 3.20264C70.3173 -0.889208 96.1653 -0.86296 102.381 3.18668Z" fill="#FFE330"/>
<ellipse cx="83.6788" cy="72.0536" rx="11.7913" ry="11.7423" fill="#FFE330"/>
<path d="M1.17679 113.04C1.17679 112.656 1.29072 112.379 1.51859 112.21C1.74645 112.04 1.9678 111.956 2.18265 111.956H3.33499C3.93395 111.956 4.4027 112.317 4.74124 113.04C4.904 113.385 5.17744 113.662 5.56155 113.87C5.94567 114.078 6.3721 114.182 6.84085 114.182H9.89749C10.6071 114.182 11.1377 114.068 11.4893 113.841C11.8409 113.613 12.0166 113.225 12.0166 112.678C12.0166 112.132 11.8409 111.744 11.4893 111.516C11.1377 111.288 10.6071 111.175 9.89749 111.175H7.37796C7.12405 111.175 6.90595 111.087 6.72366 110.911C6.54788 110.729 6.45999 110.51 6.45999 110.257V109.456C6.45999 109.215 6.54463 109.003 6.7139 108.821C6.88968 108.632 7.09801 108.538 7.3389 108.538H9.53616C10.3239 108.538 10.9001 108.421 11.2647 108.186C11.6358 107.952 11.8213 107.571 11.8213 107.044C11.8213 106.51 11.6358 106.126 11.2647 105.891C10.9001 105.657 10.3239 105.54 9.53616 105.54H7.16312C6.10843 105.54 5.37926 105.94 4.97562 106.741C4.68265 107.353 4.24319 107.659 3.65726 107.659H2.49515C2.18265 107.659 1.93851 107.545 1.76273 107.317C1.58694 107.089 1.49905 106.842 1.49905 106.575C1.49905 105.468 2.05895 104.56 3.17874 103.85C4.29853 103.134 5.51273 102.776 6.82132 102.776H9.81937C13.6084 102.776 15.503 104.202 15.503 107.053C15.503 108.238 15.0537 109.173 14.1553 109.856C15.1839 110.494 15.6983 111.435 15.6983 112.678C15.6983 114.182 15.2263 115.27 14.2823 115.94C13.3448 116.604 11.9971 116.936 10.2393 116.936H6.49905C5.17744 116.936 3.95999 116.575 2.84671 115.852C1.73343 115.123 1.17679 114.186 1.17679 113.04ZM18.1885 116.155C17.3291 115.556 16.8994 114.71 16.8994 113.616C16.8994 112.522 17.3291 111.682 18.1885 111.096C19.0544 110.51 20.1677 110.218 21.5284 110.218H24.7608C24.7608 109.456 24.6013 108.925 24.2823 108.626C23.9632 108.326 23.4034 108.177 22.6026 108.177C21.8083 108.177 21.2484 108.375 20.9229 108.772C20.6039 109.163 20.21 109.358 19.7412 109.358H18.2862C18.1104 109.358 17.9639 109.303 17.8467 109.192C17.736 109.075 17.6807 108.932 17.6807 108.762C17.6807 106.894 19.4548 105.96 23.003 105.96C24.5524 105.96 25.7959 106.308 26.7334 107.005C27.6709 107.695 28.1397 108.766 28.1397 110.218V116.262C28.1397 116.438 28.0843 116.581 27.9737 116.692C27.863 116.803 27.7198 116.858 27.544 116.858H25.6592C25.4834 116.858 25.3402 116.803 25.2295 116.692C25.1188 116.575 25.0635 116.432 25.0635 116.262V115.96C24.0349 116.695 22.8467 117.06 21.4991 117.053C20.1579 117.053 19.0544 116.754 18.1885 116.155ZM21.7627 112.434C21.307 112.434 20.9457 112.545 20.6787 112.766C20.4183 112.988 20.2881 113.274 20.2881 113.626C20.2881 113.977 20.4248 114.267 20.6983 114.495C20.9717 114.723 21.3591 114.837 21.8604 114.837C22.863 114.837 23.8298 114.544 24.7608 113.958V112.434H21.7627ZM30.5518 116.262V106.76C30.5518 106.585 30.6071 106.441 30.7178 106.331C30.835 106.214 30.9782 106.155 31.1475 106.155H36.9873C38.2308 106.155 39.2367 106.396 40.0049 106.878C40.7797 107.359 41.167 108.085 41.167 109.055C41.167 110.019 40.7666 110.748 39.9659 111.243C41.1052 111.816 41.6748 112.665 41.6748 113.792C41.6748 114.918 41.307 115.712 40.5713 116.175C39.8356 116.63 38.781 116.858 37.4073 116.858H31.1475C30.9782 116.858 30.835 116.803 30.7178 116.692C30.6071 116.575 30.5518 116.432 30.5518 116.262ZM33.9307 114.68H37.1729C37.531 114.68 37.8044 114.58 37.9932 114.378C38.1885 114.176 38.2862 113.909 38.2862 113.577C38.2862 113.245 38.1885 112.978 37.9932 112.776C37.8044 112.574 37.531 112.473 37.1729 112.473H33.9307V114.68ZM33.9307 110.335H36.792C37.085 110.335 37.3226 110.244 37.5049 110.061C37.6937 109.872 37.7881 109.632 37.7881 109.339C37.7881 109.046 37.6937 108.808 37.5049 108.626C37.3226 108.437 37.085 108.343 36.792 108.343H33.9307V110.335ZM42.3487 116.594C42.3226 116.542 42.3096 116.468 42.3096 116.37C42.3096 116.266 42.3617 116.122 42.4659 115.94L43.9209 113.255C44.4418 112.285 45.1351 111.699 46.001 111.497C45.5127 111.38 45.0863 111.162 44.7217 110.843C44.3636 110.517 44.0967 110.149 43.9209 109.739L42.8662 107.083C42.7881 106.868 42.7425 106.692 42.7295 106.555C42.7295 106.288 42.889 106.155 43.208 106.155H45.044C45.363 106.155 45.6494 106.24 45.9034 106.409C46.1573 106.578 46.3363 106.803 46.4405 107.083L47.1826 109.075C47.5147 109.954 48.156 110.393 49.1065 110.393V106.76C49.1065 106.585 49.1618 106.441 49.2725 106.331C49.3897 106.214 49.5329 106.155 49.7022 106.155H51.8897C52.0589 106.155 52.1989 106.214 52.3096 106.331C52.4268 106.441 52.4854 106.585 52.4854 106.76V110.393C53.4294 110.393 54.0707 109.954 54.4092 109.075L55.1416 107.083C55.2523 106.803 55.4346 106.578 55.6885 106.409C55.9424 106.24 56.2289 106.155 56.5479 106.155H58.3838C58.6898 106.155 58.8428 106.288 58.8428 106.555C58.8428 106.692 58.8037 106.868 58.7256 107.083L57.6612 109.739C57.4919 110.149 57.225 110.517 56.8604 110.843C56.5023 111.162 56.0759 111.38 55.5811 111.497C56.4535 111.699 57.1468 112.285 57.6612 113.255L59.126 115.94C59.2302 116.122 59.2823 116.266 59.2823 116.37C59.2823 116.468 59.2692 116.542 59.2432 116.594C59.1911 116.77 59.0381 116.858 58.7842 116.858H56.9483C56.2647 116.858 55.7634 116.552 55.4444 115.94L54.4092 113.919C53.9665 113.053 53.3252 112.62 52.4854 112.62V116.262C52.4854 116.432 52.4268 116.575 52.3096 116.692C52.1989 116.803 52.0589 116.858 51.8897 116.858H49.7022C49.5329 116.858 49.3897 116.803 49.2725 116.692C49.1618 116.575 49.1065 116.432 49.1065 116.262V112.62C48.2666 112.62 47.6254 113.053 47.1826 113.919L46.1475 115.94C45.8285 116.552 45.3272 116.858 44.6436 116.858H42.8076C42.5537 116.858 42.4007 116.77 42.3487 116.594ZM59.7022 116.262V115.1C59.7022 114.925 59.7575 114.781 59.8682 114.671C59.9854 114.553 60.1319 114.495 60.3076 114.495H61.0694L62.4073 109.114C62.902 107.141 64.5362 106.155 67.3096 106.155H71.7432C71.919 106.155 72.0622 106.214 72.1729 106.331C72.2901 106.441 72.3487 106.585 72.3487 106.76V116.262C72.3487 116.432 72.2901 116.575 72.1729 116.692C72.0622 116.803 71.919 116.858 71.7432 116.858H60.3076C60.1319 116.858 59.9854 116.803 59.8682 116.692C59.7575 116.575 59.7022 116.432 59.7022 116.262ZM64.2627 114.495H68.9698V108.518H67.2022C66.2582 108.518 65.6592 108.997 65.4053 109.954L64.2627 114.495ZM74.751 116.262V106.76C74.751 106.585 74.8063 106.441 74.917 106.331C75.0342 106.214 75.1774 106.155 75.3467 106.155H77.3877C77.5635 106.155 77.7067 106.214 77.8174 106.331C77.9346 106.441 77.9932 106.585 77.9932 106.76V113.177L81.4307 106.858C81.5349 106.656 81.6944 106.49 81.9092 106.36C82.1241 106.223 82.3324 106.155 82.5342 106.155H85.2686C85.4444 106.155 85.5876 106.214 85.6983 106.331C85.8155 106.441 85.8741 106.585 85.8741 106.76V116.262C85.8741 116.438 85.8155 116.581 85.6983 116.692C85.5876 116.803 85.4444 116.858 85.2686 116.858H83.2276C83.0518 116.858 82.9086 116.803 82.7979 116.692C82.6872 116.575 82.6319 116.432 82.6319 116.262V109.856L79.1944 116.155C79.0902 116.344 78.9307 116.51 78.7159 116.653C78.501 116.79 78.2927 116.858 78.0909 116.858H75.3467C75.1709 116.858 75.0277 116.803 74.917 116.692C74.8063 116.581 74.751 116.438 74.751 116.262ZM96.4795 115.208C95.2751 114.055 94.6729 112.275 94.6729 109.866C94.6729 107.451 95.2751 105.667 96.4795 104.514C97.6905 103.356 99.5036 102.776 101.919 102.776H104.097C105.575 102.776 106.88 103.16 108.013 103.928C109.152 104.697 109.722 105.748 109.722 107.083C109.722 107.467 109.608 107.744 109.38 107.913C109.152 108.076 108.931 108.157 108.716 108.157H107.554C106.955 108.157 106.489 107.799 106.157 107.083C105.675 106.054 104.875 105.54 103.755 105.54H102.017C100.591 105.54 99.6241 105.846 99.1162 106.458C98.6084 107.07 98.3545 108.203 98.3545 109.856C98.3545 111.51 98.6084 112.646 99.1162 113.264C99.6241 113.876 100.591 114.182 102.017 114.182H103.96C105.08 114.182 105.877 113.668 106.353 112.639C106.685 111.917 107.153 111.555 107.759 111.555H108.921C109.227 111.555 109.468 111.669 109.644 111.897C109.826 112.125 109.917 112.372 109.917 112.639C109.917 113.974 109.351 115.025 108.218 115.794C107.085 116.555 105.78 116.936 104.302 116.936H101.919C99.5036 116.936 97.6905 116.36 96.4795 115.208ZM111.626 116.262V106.76C111.626 106.585 111.681 106.441 111.792 106.331C111.909 106.214 112.052 106.155 112.222 106.155H118.062C119.305 106.155 120.311 106.396 121.079 106.878C121.854 107.359 122.241 108.085 122.241 109.055C122.241 110.019 121.841 110.748 121.04 111.243C122.179 111.816 122.749 112.665 122.749 113.792C122.749 114.918 122.381 115.712 121.646 116.175C120.91 116.63 119.855 116.858 118.481 116.858H112.222C112.052 116.858 111.909 116.803 111.792 116.692C111.681 116.575 111.626 116.432 111.626 116.262ZM115.005 114.68H118.247C118.605 114.68 118.879 114.58 119.067 114.378C119.263 114.176 119.36 113.909 119.36 113.577C119.36 113.245 119.263 112.978 119.067 112.776C118.879 112.574 118.605 112.473 118.247 112.473H115.005V114.68ZM115.005 110.335H117.866C118.159 110.335 118.397 110.244 118.579 110.061C118.768 109.872 118.862 109.632 118.862 109.339C118.862 109.046 118.768 108.808 118.579 108.626C118.397 108.437 118.159 108.343 117.866 108.343H115.005V110.335ZM124.458 104.114V103.782C124.458 103.437 124.556 103.163 124.751 102.962C124.953 102.76 125.23 102.659 125.581 102.659H126.792C127.137 102.659 127.411 102.76 127.612 102.962C127.814 103.157 127.915 103.43 127.915 103.782V104.114C127.915 104.459 127.814 104.733 127.612 104.934C127.417 105.136 127.144 105.237 126.792 105.237H125.581C125.236 105.237 124.963 105.136 124.761 104.934C124.559 104.733 124.458 104.459 124.458 104.114ZM124.497 116.262V106.995C124.497 106.819 124.552 106.676 124.663 106.565C124.78 106.455 124.924 106.399 125.093 106.399H127.28C127.456 106.399 127.599 106.458 127.71 106.575C127.821 106.686 127.876 106.826 127.876 106.995V116.262C127.876 116.438 127.817 116.581 127.7 116.692C127.59 116.803 127.45 116.858 127.28 116.858H125.093C124.917 116.858 124.774 116.803 124.663 116.692C124.552 116.581 124.497 116.438 124.497 116.262ZM129.312 107.923V106.76C129.312 106.585 129.367 106.441 129.478 106.331C129.595 106.214 129.741 106.155 129.917 106.155H139.536C139.712 106.155 139.855 106.214 139.966 106.331C140.077 106.441 140.132 106.585 140.132 106.76V107.923C140.132 108.092 140.077 108.235 139.966 108.352C139.855 108.463 139.712 108.518 139.536 108.518H136.421V116.262C136.421 116.432 136.362 116.575 136.245 116.692C136.134 116.803 135.991 116.858 135.815 116.858H133.638C133.462 116.858 133.315 116.803 133.198 116.692C133.088 116.575 133.032 116.432 133.032 116.262V108.518H129.917C129.741 108.518 129.595 108.463 129.478 108.352C129.367 108.235 129.312 108.092 129.312 107.923ZM140.181 116.214L141.939 109.114C142.433 107.141 144.067 106.155 146.841 106.155H151.46C151.629 106.155 151.769 106.214 151.88 106.331C151.997 106.441 152.056 106.585 152.056 106.76V116.262C152.056 116.432 151.997 116.575 151.88 116.692C151.769 116.803 151.629 116.858 151.46 116.858H149.272C149.103 116.858 148.96 116.803 148.843 116.692C148.732 116.575 148.677 116.432 148.677 116.262V108.518H146.841C145.929 108.518 145.353 108.997 145.112 109.954L143.579 116.135C143.521 116.35 143.403 116.526 143.228 116.663C143.058 116.793 142.876 116.858 142.681 116.858H140.679C140.503 116.858 140.369 116.806 140.278 116.702C140.194 116.591 140.151 116.497 140.151 116.419C140.151 116.341 140.161 116.272 140.181 116.214ZM155.376 115.647C154.36 114.71 153.853 113.33 153.853 111.507C153.853 109.677 154.36 108.297 155.376 107.366C156.392 106.428 157.85 105.96 159.751 105.96C161.659 105.96 163.12 106.428 164.136 107.366C165.151 108.297 165.659 109.677 165.659 111.507C165.659 113.33 165.151 114.71 164.136 115.647C163.12 116.585 161.659 117.053 159.751 117.053C157.85 117.053 156.392 116.585 155.376 115.647ZM157.847 108.968C157.443 109.495 157.241 110.338 157.241 111.497C157.241 112.656 157.443 113.502 157.847 114.036C158.25 114.57 158.885 114.837 159.751 114.837C160.623 114.837 161.261 114.57 161.665 114.036C162.075 113.502 162.28 112.656 162.28 111.497C162.28 110.338 162.075 109.495 161.665 108.968C161.261 108.44 160.623 108.177 159.751 108.177C158.885 108.177 158.25 108.44 157.847 108.968Z" fill="white"/>
</svg>
