<svg width="166" height="16" viewBox="0 0 166 16" fill="none" xmlns="http://www.w3.org/2000/svg">
<path d="M0.688538 11.3276C0.688538 10.9435 0.80247 10.6668 1.03033 10.4976C1.2582 10.3283 1.47955 10.2437 1.6944 10.2437H2.84674C3.4457 10.2437 3.91445 10.605 4.25299 11.3276C4.41575 11.6727 4.68919 11.9494 5.0733 12.1577C5.45742 12.366 5.88385 12.4702 6.3526 12.4702H9.40924C10.1189 12.4702 10.6495 12.3563 11.001 12.1284C11.3526 11.9006 11.5284 11.5132 11.5284 10.9663C11.5284 10.4194 11.3526 10.0321 11.001 9.8042C10.6495 9.57633 10.1189 9.4624 9.40924 9.4624H6.88971C6.6358 9.4624 6.4177 9.37451 6.23541 9.19873C6.05963 9.01644 5.97174 8.79834 5.97174 8.54443V7.74365C5.97174 7.50277 6.05638 7.29118 6.22565 7.10889C6.40143 6.92008 6.60976 6.82568 6.85065 6.82568H9.04791C9.83567 6.82568 10.4118 6.7085 10.7764 6.47412C11.1475 6.23975 11.3331 5.85889 11.3331 5.33154C11.3331 4.79769 11.1475 4.41357 10.7764 4.1792C10.4118 3.94482 9.83567 3.82764 9.04791 3.82764H6.67487C5.62018 3.82764 4.89101 4.22803 4.48737 5.02881C4.1944 5.64079 3.75494 5.94678 3.16901 5.94678H2.0069C1.6944 5.94678 1.45026 5.83285 1.27448 5.60498C1.09869 5.37712 1.0108 5.12972 1.0108 4.86279C1.0108 3.75602 1.5707 2.84782 2.69049 2.13818C3.81028 1.42204 5.02448 1.06396 6.33307 1.06396H9.33112C13.1202 1.06396 15.0147 2.48975 15.0147 5.34131C15.0147 6.5262 14.5655 7.46045 13.6671 8.14404C14.6957 8.78206 15.21 9.72282 15.21 10.9663C15.21 12.4702 14.738 13.5575 13.794 14.228C12.8565 14.8921 11.5089 15.2241 9.75104 15.2241H6.0108C4.68919 15.2241 3.47174 14.8628 2.35846 14.1401C1.24518 13.411 0.688538 12.4735 0.688538 11.3276ZM17.7003 14.4429C16.8409 13.8439 16.4112 12.9976 16.4112 11.9038C16.4112 10.8101 16.8409 9.97021 17.7003 9.38428C18.5661 8.79834 19.6794 8.50537 21.0401 8.50537H24.2725C24.2725 7.74365 24.113 7.21305 23.794 6.91357C23.475 6.6141 22.9151 6.46436 22.1143 6.46436C21.32 6.46436 20.7602 6.66292 20.4346 7.06006C20.1156 7.45068 19.7217 7.646 19.253 7.646H17.7979C17.6221 7.646 17.4756 7.59066 17.3585 7.47998C17.2478 7.36279 17.1924 7.21956 17.1924 7.05029C17.1924 5.1818 18.9665 4.24756 22.5147 4.24756C24.0642 4.24756 25.3077 4.59587 26.2452 5.29248C27.1827 5.98258 27.6514 7.05355 27.6514 8.50537V14.5503C27.6514 14.7261 27.5961 14.8693 27.4854 14.98C27.3747 15.0907 27.2315 15.146 27.0557 15.146H25.171C24.9952 15.146 24.8519 15.0907 24.7413 14.98C24.6306 14.8628 24.5753 14.7196 24.5753 14.5503V14.2476C23.5466 14.9832 22.3585 15.3478 21.0108 15.3413C19.6697 15.3413 18.5661 15.0418 17.7003 14.4429ZM21.2745 10.7222C20.8187 10.7222 20.4574 10.8328 20.1905 11.0542C19.9301 11.2756 19.7999 11.562 19.7999 11.9136C19.7999 12.2651 19.9366 12.5549 20.21 12.7827C20.4835 13.0106 20.8708 13.1245 21.3721 13.1245C22.3747 13.1245 23.3415 12.8315 24.2725 12.2456V10.7222H21.2745ZM30.0635 14.5503V5.04834C30.0635 4.87256 30.1189 4.72933 30.2296 4.61865C30.3467 4.50146 30.49 4.44287 30.6592 4.44287H36.4991C37.7426 4.44287 38.7484 4.68376 39.5167 5.16553C40.2914 5.6473 40.6788 6.37321 40.6788 7.34326C40.6788 8.3068 40.2784 9.03597 39.4776 9.53076C40.6169 10.1037 41.1866 10.9533 41.1866 12.0796C41.1866 13.2059 40.8187 14.0002 40.0831 14.4624C39.3474 14.9181 38.2927 15.146 36.919 15.146H30.6592C30.49 15.146 30.3467 15.0907 30.2296 14.98C30.1189 14.8628 30.0635 14.7196 30.0635 14.5503ZM33.4424 12.9683H36.6846C37.0427 12.9683 37.3161 12.8674 37.5049 12.6655C37.7003 12.4637 37.7979 12.1968 37.7979 11.8647C37.7979 11.5327 37.7003 11.2658 37.5049 11.064C37.3161 10.8621 37.0427 10.7612 36.6846 10.7612H33.4424V12.9683ZM33.4424 8.62256H36.3038C36.5967 8.62256 36.8344 8.53141 37.0167 8.34912C37.2055 8.16032 37.2999 7.91943 37.2999 7.62646C37.2999 7.3335 37.2055 7.09587 37.0167 6.91357C36.8344 6.72477 36.5967 6.63037 36.3038 6.63037H33.4424V8.62256ZM41.8604 14.8823C41.8344 14.8302 41.8214 14.7554 41.8214 14.6577C41.8214 14.5535 41.8734 14.4103 41.9776 14.228L43.4327 11.5425C43.9535 10.5724 44.6469 9.98649 45.5128 9.78467C45.0245 9.66748 44.598 9.44938 44.2335 9.13037C43.8754 8.80485 43.6085 8.43701 43.4327 8.02686L42.378 5.37061C42.2999 5.15576 42.2543 4.97998 42.2413 4.84326C42.2413 4.57633 42.4008 4.44287 42.7198 4.44287H44.5557C44.8747 4.44287 45.1612 4.52751 45.4151 4.69678C45.669 4.86605 45.848 5.09066 45.9522 5.37061L46.6944 7.36279C47.0264 8.2417 47.6677 8.68115 48.6182 8.68115V5.04834C48.6182 4.87256 48.6736 4.72933 48.7842 4.61865C48.9014 4.50146 49.0447 4.44287 49.2139 4.44287H51.4014C51.5707 4.44287 51.7107 4.50146 51.8214 4.61865C51.9385 4.72933 51.9971 4.87256 51.9971 5.04834V8.68115C52.9411 8.68115 53.5824 8.2417 53.921 7.36279L54.6534 5.37061C54.7641 5.09066 54.9464 4.86605 55.2003 4.69678C55.4542 4.52751 55.7406 4.44287 56.0596 4.44287H57.8956C58.2016 4.44287 58.3546 4.57633 58.3546 4.84326C58.3546 4.97998 58.3155 5.15576 58.2374 5.37061L57.1729 8.02686C57.0036 8.43701 56.7367 8.80485 56.3721 9.13037C56.0141 9.44938 55.5876 9.66748 55.0928 9.78467C55.9652 9.98649 56.6586 10.5724 57.1729 11.5425L58.6378 14.228C58.7419 14.4103 58.794 14.5535 58.794 14.6577C58.794 14.7554 58.781 14.8302 58.7549 14.8823C58.7029 15.0581 58.5499 15.146 58.296 15.146H56.46C55.7764 15.146 55.2751 14.84 54.9561 14.228L53.921 12.2065C53.4783 11.3407 52.837 10.9077 51.9971 10.9077V14.5503C51.9971 14.7196 51.9385 14.8628 51.8214 14.98C51.7107 15.0907 51.5707 15.146 51.4014 15.146H49.2139C49.0447 15.146 48.9014 15.0907 48.7842 14.98C48.6736 14.8628 48.6182 14.7196 48.6182 14.5503V10.9077C47.7784 10.9077 47.1371 11.3407 46.6944 12.2065L45.6592 14.228C45.3402 14.84 44.8389 15.146 44.1553 15.146H42.3194C42.0655 15.146 41.9125 15.0581 41.8604 14.8823ZM59.2139 14.5503V13.3882C59.2139 13.2124 59.2693 13.0692 59.3799 12.9585C59.4971 12.8413 59.6436 12.7827 59.8194 12.7827H60.5811L61.919 7.40186C62.4138 5.4292 64.0479 4.44287 66.8214 4.44287H71.2549C71.4307 4.44287 71.574 4.50146 71.6846 4.61865C71.8018 4.72933 71.8604 4.87256 71.8604 5.04834V14.5503C71.8604 14.7196 71.8018 14.8628 71.6846 14.98C71.574 15.0907 71.4307 15.146 71.2549 15.146H59.8194C59.6436 15.146 59.4971 15.0907 59.3799 14.98C59.2693 14.8628 59.2139 14.7196 59.2139 14.5503ZM63.7745 12.7827H68.4815V6.80615H66.7139C65.7699 6.80615 65.171 7.28467 64.9171 8.2417L63.7745 12.7827ZM74.2628 14.5503V5.04834C74.2628 4.87256 74.3181 4.72933 74.4288 4.61865C74.546 4.50146 74.6892 4.44287 74.8585 4.44287H76.8995C77.0753 4.44287 77.2185 4.50146 77.3292 4.61865C77.4464 4.72933 77.5049 4.87256 77.5049 5.04834V11.4644L80.9424 5.146C81.0466 4.94417 81.2061 4.77816 81.421 4.64795C81.6358 4.51123 81.8441 4.44287 82.046 4.44287H84.7803C84.9561 4.44287 85.0993 4.50146 85.21 4.61865C85.3272 4.72933 85.3858 4.87256 85.3858 5.04834V14.5503C85.3858 14.7261 85.3272 14.8693 85.21 14.98C85.0993 15.0907 84.9561 15.146 84.7803 15.146H82.7393C82.5635 15.146 82.4203 15.0907 82.3096 14.98C82.199 14.8628 82.1436 14.7196 82.1436 14.5503V8.14404L78.7061 14.4429C78.6019 14.6317 78.4424 14.7977 78.2276 14.9409C78.0128 15.0776 77.8044 15.146 77.6026 15.146H74.8585C74.6827 15.146 74.5394 15.0907 74.4288 14.98C74.3181 14.8693 74.2628 14.7261 74.2628 14.5503ZM95.9913 13.4956C94.7868 12.3433 94.1846 10.5627 94.1846 8.15381C94.1846 5.73844 94.7868 3.95459 95.9913 2.80225C97.2022 1.64339 99.0154 1.06396 101.431 1.06396H103.608C105.086 1.06396 106.392 1.44808 107.524 2.21631C108.664 2.98454 109.233 4.03597 109.233 5.37061C109.233 5.75472 109.12 6.03141 108.892 6.20068C108.664 6.36344 108.442 6.44482 108.228 6.44482H107.065C106.467 6.44482 106.001 6.08675 105.669 5.37061C105.187 4.34196 104.386 3.82764 103.267 3.82764H101.528C100.103 3.82764 99.1358 4.13363 98.628 4.74561C98.1202 5.35758 97.8663 6.4904 97.8663 8.14404C97.8663 9.79769 98.1202 10.9338 98.628 11.5522C99.1358 12.1642 100.103 12.4702 101.528 12.4702H103.472C104.592 12.4702 105.389 11.9559 105.864 10.9272C106.196 10.2046 106.665 9.84326 107.271 9.84326H108.433C108.739 9.84326 108.98 9.95719 109.155 10.1851C109.338 10.4129 109.429 10.6603 109.429 10.9272C109.429 12.2619 108.862 13.3133 107.73 14.0815C106.597 14.8433 105.291 15.2241 103.814 15.2241H101.431C99.0154 15.2241 97.2022 14.6479 95.9913 13.4956ZM111.138 14.5503V5.04834C111.138 4.87256 111.193 4.72933 111.304 4.61865C111.421 4.50146 111.564 4.44287 111.733 4.44287H117.573C118.817 4.44287 119.823 4.68376 120.591 5.16553C121.366 5.6473 121.753 6.37321 121.753 7.34326C121.753 8.3068 121.353 9.03597 120.552 9.53076C121.691 10.1037 122.261 10.9533 122.261 12.0796C122.261 13.2059 121.893 14.0002 121.157 14.4624C120.422 14.9181 119.367 15.146 117.993 15.146H111.733C111.564 15.146 111.421 15.0907 111.304 14.98C111.193 14.8628 111.138 14.7196 111.138 14.5503ZM114.517 12.9683H117.759C118.117 12.9683 118.39 12.8674 118.579 12.6655C118.774 12.4637 118.872 12.1968 118.872 11.8647C118.872 11.5327 118.774 11.2658 118.579 11.064C118.39 10.8621 118.117 10.7612 117.759 10.7612H114.517V12.9683ZM114.517 8.62256H117.378C117.671 8.62256 117.909 8.53141 118.091 8.34912C118.28 8.16032 118.374 7.91943 118.374 7.62646C118.374 7.3335 118.28 7.09587 118.091 6.91357C117.909 6.72477 117.671 6.63037 117.378 6.63037H114.517V8.62256ZM123.97 2.40186V2.06982C123.97 1.72477 124.067 1.45133 124.263 1.24951C124.465 1.04769 124.741 0.946777 125.093 0.946777H126.304C126.649 0.946777 126.922 1.04769 127.124 1.24951C127.326 1.44482 127.427 1.71826 127.427 2.06982V2.40186C127.427 2.74691 127.326 3.02035 127.124 3.22217C126.929 3.42399 126.655 3.5249 126.304 3.5249H125.093C124.748 3.5249 124.474 3.42399 124.273 3.22217C124.071 3.02035 123.97 2.74691 123.97 2.40186ZM124.009 14.5503V5.28271C124.009 5.10693 124.064 4.9637 124.175 4.85303C124.292 4.74235 124.435 4.68701 124.605 4.68701H126.792C126.968 4.68701 127.111 4.74561 127.222 4.86279C127.332 4.97347 127.388 5.11344 127.388 5.28271V14.5503C127.388 14.7261 127.329 14.8693 127.212 14.98C127.101 15.0907 126.961 15.146 126.792 15.146H124.605C124.429 15.146 124.286 15.0907 124.175 14.98C124.064 14.8693 124.009 14.7261 124.009 14.5503ZM128.823 6.21045V5.04834C128.823 4.87256 128.879 4.72933 128.989 4.61865C129.107 4.50146 129.253 4.44287 129.429 4.44287H139.048C139.224 4.44287 139.367 4.50146 139.478 4.61865C139.588 4.72933 139.644 4.87256 139.644 5.04834V6.21045C139.644 6.37972 139.588 6.52295 139.478 6.64014C139.367 6.75081 139.224 6.80615 139.048 6.80615H135.933V14.5503C135.933 14.7196 135.874 14.8628 135.757 14.98C135.646 15.0907 135.503 15.146 135.327 15.146H133.149C132.974 15.146 132.827 15.0907 132.71 14.98C132.599 14.8628 132.544 14.7196 132.544 14.5503V6.80615H129.429C129.253 6.80615 129.107 6.75081 128.989 6.64014C128.879 6.52295 128.823 6.37972 128.823 6.21045ZM139.692 14.5015L141.45 7.40186C141.945 5.4292 143.579 4.44287 146.353 4.44287H150.972C151.141 4.44287 151.281 4.50146 151.392 4.61865C151.509 4.72933 151.567 4.87256 151.567 5.04834V14.5503C151.567 14.7196 151.509 14.8628 151.392 14.98C151.281 15.0907 151.141 15.146 150.972 15.146H148.784C148.615 15.146 148.472 15.0907 148.355 14.98C148.244 14.8628 148.189 14.7196 148.189 14.5503V6.80615H146.353C145.441 6.80615 144.865 7.28467 144.624 8.2417L143.091 14.4233C143.032 14.6382 142.915 14.814 142.739 14.9507C142.57 15.0809 142.388 15.146 142.192 15.146H140.19C140.015 15.146 139.881 15.0939 139.79 14.9897C139.705 14.8791 139.663 14.7847 139.663 14.7065C139.663 14.6284 139.673 14.5601 139.692 14.5015ZM154.888 13.9351C153.872 12.9976 153.364 11.6174 153.364 9.79443C153.364 7.96501 153.872 6.5848 154.888 5.65381C155.903 4.71631 157.362 4.24756 159.263 4.24756C161.17 4.24756 162.632 4.71631 163.648 5.65381C164.663 6.5848 165.171 7.96501 165.171 9.79443C165.171 11.6174 164.663 12.9976 163.648 13.9351C162.632 14.8726 161.17 15.3413 159.263 15.3413C157.362 15.3413 155.903 14.8726 154.888 13.9351ZM157.358 7.25537C156.955 7.78271 156.753 8.62581 156.753 9.78467C156.753 10.9435 156.955 11.7899 157.358 12.3237C157.762 12.8576 158.397 13.1245 159.263 13.1245C160.135 13.1245 160.773 12.8576 161.177 12.3237C161.587 11.7899 161.792 10.9435 161.792 9.78467C161.792 8.62581 161.587 7.78271 161.177 7.25537C160.773 6.72803 160.135 6.46436 159.263 6.46436C158.397 6.46436 157.762 6.72803 157.358 7.25537Z" fill="white"/>
</svg>
